<svg width="23" height="17" viewBox="0 0 23 17" fill="none" xmlns="http://www.w3.org/2000/svg">
<path d="M17.5 13.2003C19.7459 12.9773 21.5 11.0824 21.5 8.77778C21.5 6.10488 19.0452 4.00249 16.4198 4.37847C16.4155 4.37908 16.4113 4.3769 16.4093 4.37305C15.4052 2.37277 13.3351 1 10.9444 1C7.75974 1 5.14402 3.43609 4.85907 6.54647C4.8586 6.55164 4.85421 6.55563 4.84902 6.55563C3.02707 6.55405 1.5 8.06056 1.5 9.88889C1.5 11.7298 2.99238 13.2222 4.83333 13.2222H5.5" stroke="#0F4D50" stroke-width="1.5" stroke-linecap="round"/>
<path d="M9 13.5L11.1464 15.6464C11.3417 15.8417 11.6583 15.8417 11.8535 15.6464L14 13.5" stroke="#0F4D50" stroke-width="1.5" stroke-linecap="round"/>
<path d="M11.5 15L11.5 9" stroke="#0F4D50" stroke-width="1.5" stroke-linecap="round"/>
</svg>
