<svg width="25" height="24" viewBox="0 0 25 24" fill="none" xmlns="http://www.w3.org/2000/svg">
<path d="M18.5997 7.16C18.5397 7.15 18.4697 7.15 18.4097 7.16C17.0297 7.11 15.9297 5.98 15.9297 4.58C15.9297 3.15 17.0797 2 18.5097 2C19.9397 2 21.0897 3.16 21.0897 4.58C21.0797 5.98 19.9797 7.11 18.5997 7.16Z" stroke="#0F4D50" stroke-width="1.5" stroke-linecap="round" stroke-linejoin="round"/>
<path d="M17.5691 14.4402C18.9391 14.6702 20.4491 14.4302 21.5091 13.7202C22.9191 12.7802 22.9191 11.2402 21.5091 10.3002C20.4391 9.59016 18.9091 9.35016 17.5391 9.59016" stroke="#0F4D50" stroke-width="1.5" stroke-linecap="round" stroke-linejoin="round"/>
<path d="M6.56813 7.16C6.62813 7.15 6.69813 7.15 6.75813 7.16C8.13813 7.11 9.23812 5.98 9.23812 4.58C9.23812 3.15 8.08813 2 6.65813 2C5.22813 2 4.07812 3.16 4.07812 4.58C4.08812 5.98 5.18813 7.11 6.56813 7.16Z" stroke="#0F4D50" stroke-width="1.5" stroke-linecap="round" stroke-linejoin="round"/>
<path d="M7.59906 14.4402C6.22906 14.6702 4.71906 14.4302 3.65906 13.7202C2.24906 12.7802 2.24906 11.2402 3.65906 10.3002C4.72906 9.59016 6.25906 9.35016 7.62906 9.59016" stroke="#0F4D50" stroke-width="1.5" stroke-linecap="round" stroke-linejoin="round"/>
<path d="M12.5997 14.6302C12.5397 14.6202 12.4697 14.6202 12.4097 14.6302C11.0297 14.5802 9.92969 13.4502 9.92969 12.0502C9.92969 10.6202 11.0797 9.47021 12.5097 9.47021C13.9397 9.47021 15.0897 10.6302 15.0897 12.0502C15.0797 13.4502 13.9797 14.5902 12.5997 14.6302Z" stroke="#0F4D50" stroke-width="1.5" stroke-linecap="round" stroke-linejoin="round"/>
<path d="M9.69031 17.7804C8.28031 18.7204 8.28031 20.2603 9.69031 21.2003C11.2903 22.2703 13.9103 22.2703 15.5103 21.2003C16.9203 20.2603 16.9203 18.7204 15.5103 17.7804C13.9203 16.7204 11.2903 16.7204 9.69031 17.7804Z" stroke="#0F4D50" stroke-width="1.5" stroke-linecap="round" stroke-linejoin="round"/>
</svg>
