<svg width="25" height="24" viewBox="0 0 25 24" fill="none" xmlns="http://www.w3.org/2000/svg">
<path d="M18.7969 18.86H18.0369C17.2369 18.86 16.4769 19.17 15.9169 19.73L14.2068 21.42C13.4268 22.19 12.1569 22.19 11.3769 21.42L9.66687 19.73C9.10687 19.17 8.33688 18.86 7.54688 18.86H6.79688C5.13688 18.86 3.79688 17.53 3.79688 15.89V4.97C3.79688 3.33 5.13688 2 6.79688 2H18.7969C20.4569 2 21.7969 3.33 21.7969 4.97V15.88C21.7969 17.52 20.4569 18.86 18.7969 18.86Z" stroke="white" stroke-width="1.5" stroke-miterlimit="10" stroke-linecap="round" stroke-linejoin="round"/>
<path d="M12.866 8.9498C12.826 8.9498 12.7659 8.9498 12.7159 8.9498C11.6659 8.9098 10.8359 8.0598 10.8359 6.9998C10.8359 5.9198 11.7059 5.0498 12.7859 5.0498C13.8659 5.0498 14.736 5.9298 14.736 6.9998C14.746 8.0598 13.916 8.9198 12.866 8.9498Z" stroke="white" stroke-width="1.5" stroke-linecap="round" stroke-linejoin="round"/>
<path d="M10.0444 11.96C8.71438 12.85 8.71438 14.3 10.0444 15.19C11.5544 16.2 14.0344 16.2 15.5444 15.19C16.8744 14.3 16.8744 12.85 15.5444 11.96C14.0344 10.96 11.5644 10.96 10.0444 11.96Z" stroke="white" stroke-width="1.5" stroke-linecap="round" stroke-linejoin="round"/>
</svg>
