<svg width="25" height="24" viewBox="0 0 25 24" fill="none" xmlns="http://www.w3.org/2000/svg">
<path d="M18.5378 21.6198C17.6578 21.8798 16.6178 21.9998 15.3978 21.9998H9.39781C8.17781 21.9998 7.13781 21.8798 6.25781 21.6198C6.47781 19.0198 9.14781 16.9697 12.3978 16.9697C15.6478 16.9697 18.3178 19.0198 18.5378 21.6198Z" stroke="#0F4D50" stroke-width="1.5" stroke-linecap="round" stroke-linejoin="round"/>
<path d="M15.3984 2H9.39844C4.39844 2 2.39844 4 2.39844 9V15C2.39844 18.78 3.53844 20.85 6.25844 21.62C6.47844 19.02 9.14844 16.97 12.3984 16.97C15.6484 16.97 18.3184 19.02 18.5384 21.62C21.2584 20.85 22.3984 18.78 22.3984 15V9C22.3984 4 20.3984 2 15.3984 2ZM12.3984 14.17C10.4184 14.17 8.81844 12.56 8.81844 10.58C8.81844 8.60002 10.4184 7 12.3984 7C14.3784 7 15.9784 8.60002 15.9784 10.58C15.9784 12.56 14.3784 14.17 12.3984 14.17Z" stroke="#0F4D50" stroke-width="1.5" stroke-linecap="round" stroke-linejoin="round"/>
<path d="M15.9803 10.58C15.9803 12.56 14.3803 14.17 12.4003 14.17C10.4203 14.17 8.82031 12.56 8.82031 10.58C8.82031 8.60002 10.4203 7 12.4003 7C14.3803 7 15.9803 8.60002 15.9803 10.58Z" stroke="#0F4D50" stroke-width="1.5" stroke-linecap="round" stroke-linejoin="round"/>
</svg>
