<svg width="22" height="22" viewBox="0 0 22 22" fill="none" xmlns="http://www.w3.org/2000/svg">
<path fill-rule="evenodd" clip-rule="evenodd" d="M0.25 11C0.25 5.06294 5.06294 0.25 11 0.25C16.9371 0.25 21.75 5.06294 21.75 11C21.75 16.9371 16.9371 21.75 11 21.75C5.06294 21.75 0.25 16.9371 0.25 11ZM12.25 10C12.25 9.58579 11.9142 9.25 11.5 9.25H9.5C9.08579 9.25 8.75 9.58579 8.75 10C8.75 10.4142 9.08579 10.75 9.5 10.75H10.75V16C10.75 16.4142 11.0858 16.75 11.5 16.75C11.9142 16.75 12.25 16.4142 12.25 16V10ZM12.25 6C12.25 5.58579 11.9142 5.25 11.5 5.25C11.0858 5.25 10.75 5.58579 10.75 6V7C10.75 7.41421 11.0858 7.75 11.5 7.75C11.9142 7.75 12.25 7.41421 12.25 7V6Z" fill="#CE6D6D"/>
</svg>
